<svg width="22" height="22" viewBox="0 0 22 22" fill="none" xmlns="http://www.w3.org/2000/svg">
<path d="M10.9375 14.8438C11.9735 14.8438 12.9671 14.4322 13.6996 13.6996C14.4322 12.9671 14.8438 11.9735 14.8438 10.9375C14.8438 9.9015 14.4322 8.90793 13.6996 8.17536C12.9671 7.4428 11.9735 7.03125 10.9375 7.03125C9.9015 7.03125 8.90793 7.4428 8.17536 8.17536C7.4428 8.90793 7.03125 9.9015 7.03125 10.9375C7.03125 11.9735 7.4428 12.9671 8.17536 13.6996C8.90793 14.4322 9.9015 14.8438 10.9375 14.8438ZM11.7188 0.78125C11.7188 0.57405 11.6364 0.375336 11.4899 0.228823C11.3434 0.08231 11.1447 0 10.9375 0C10.7303 0 10.5316 0.08231 10.3851 0.228823C10.2386 0.375336 10.1562 0.57405 10.1562 0.78125V3.16406C8.36335 3.34483 6.68798 4.13958 5.41378 5.41378C4.13958 6.68798 3.34483 8.36335 3.16406 10.1562H0.78125C0.57405 10.1562 0.375336 10.2386 0.228823 10.3851C0.08231 10.5316 0 10.7303 0 10.9375C0 11.1447 0.08231 11.3434 0.228823 11.4899C0.375336 11.6364 0.57405 11.7188 0.78125 11.7188H3.16406C3.34449 13.5119 4.13909 15.1877 5.41332 16.4622C6.68756 17.7367 8.36311 18.5317 10.1562 18.7125V21.0938C10.1562 21.301 10.2386 21.4997 10.3851 21.6462C10.5316 21.7927 10.7303 21.875 10.9375 21.875C11.1447 21.875 11.3434 21.7927 11.4899 21.6462C11.6364 21.4997 11.7188 21.301 11.7188 21.0938V18.7125C13.5119 18.5317 15.1874 17.7367 16.4617 16.4622C17.7359 15.1877 18.5305 13.5119 18.7109 11.7188H21.0938C21.301 11.7188 21.4997 11.6364 21.6462 11.4899C21.7927 11.3434 21.875 11.1447 21.875 10.9375C21.875 10.7303 21.7927 10.5316 21.6462 10.3851C21.4997 10.2386 21.301 10.1562 21.0938 10.1562H18.7109C18.5302 8.36335 17.7354 6.68798 16.4612 5.41378C15.187 4.13958 13.5117 3.34483 11.7188 3.16406V0.78125ZM10.9375 17.1875C9.2799 17.1875 7.69018 16.529 6.51808 15.3569C5.34598 14.1848 4.6875 12.5951 4.6875 10.9375C4.6875 9.2799 5.34598 7.69018 6.51808 6.51808C7.69018 5.34598 9.2799 4.6875 10.9375 4.6875C12.5951 4.6875 14.1848 5.34598 15.3569 6.51808C16.529 7.69018 17.1875 9.2799 17.1875 10.9375C17.1875 12.5951 16.529 14.1848 15.3569 15.3569C14.1848 16.529 12.5951 17.1875 10.9375 17.1875Z" fill="#111112"/>
</svg>
