<svg width="85" height="199" viewBox="0 0 85 199" fill="none" xmlns="http://www.w3.org/2000/svg">
<line x1="42.5" y1="1" x2="42.5" y2="162" stroke="#EAEAEA"/>
<path d="M0 198.435C34 197.078 42 184.5 42 160H43V199L0 198.435Z" fill="url(#paint0_linear_18_56)"/>
<path d="M85 198.435C51 197.078 43 184.5 43 160H42V199L85 198.435Z" fill="url(#paint1_linear_18_56)"/>
<path d="M0 0.56522C34 1.92174 42 14.5 42 39H43V0L0 0.56522Z" fill="url(#paint2_linear_18_56)"/>
<path d="M85 0.56522C51 1.92174 43 14.5 43 39H42V0L85 0.56522Z" fill="url(#paint3_linear_18_56)"/>
<defs>
<linearGradient id="paint0_linear_18_56" x1="21.5" y1="160" x2="21.5" y2="199" gradientUnits="userSpaceOnUse">
<stop stop-color="#EAEAEA"/>
<stop offset="1" stop-color="#F5F5F5"/>
</linearGradient>
<linearGradient id="paint1_linear_18_56" x1="63.5" y1="160" x2="63.5" y2="199" gradientUnits="userSpaceOnUse">
<stop stop-color="#EAEAEA"/>
<stop offset="1" stop-color="#F5F5F5"/>
</linearGradient>
<linearGradient id="paint2_linear_18_56" x1="21.5" y1="39" x2="21.5" y2="0" gradientUnits="userSpaceOnUse">
<stop stop-color="#EAEAEA"/>
<stop offset="1" stop-color="#F5F5F5"/>
</linearGradient>
<linearGradient id="paint3_linear_18_56" x1="63.5" y1="39" x2="63.5" y2="0" gradientUnits="userSpaceOnUse">
<stop stop-color="#EAEAEA"/>
<stop offset="1" stop-color="#F5F5F5"/>
</linearGradient>
</defs>
</svg>
