<svg width="32" height="25" viewBox="0 0 32 25" fill="none" xmlns="http://www.w3.org/2000/svg">
<path d="M6.85714 0.9375C3.07 0.9375 0 3.97988 0 7.875C0 11.7701 3.07 14.8125 6.85714 14.8125C7.66286 14.8125 8.425 14.6459 9.14286 14.3877V14.8125C9.14286 17.3635 7.09286 19.4375 4.57143 19.4375C3.30929 19.4375 2.28571 20.4731 2.28571 21.75C2.28571 23.0269 3.30929 24.0625 4.57143 24.0625C9.61286 24.0625 13.7143 19.913 13.7143 14.8125V7.875C13.7143 3.97988 10.6429 0.9375 6.85714 0.9375ZM32 7.875C32 4.04348 28.93 0.9375 25.1429 0.9375C21.3557 0.9375 18.2857 4.04348 18.2857 7.875C18.2857 11.7065 21.3557 14.8125 25.1429 14.8125C25.9486 14.8125 26.7107 14.6459 27.4286 14.3877V14.8125C27.4286 17.3635 25.3786 19.4375 22.8571 19.4375C21.595 19.4375 20.5714 20.4731 20.5714 21.75C20.5714 23.0269 21.595 24.0625 22.8571 24.0625C27.8986 24.0625 32 19.913 32 14.8125V7.875Z" fill="#FFB21A"/>
</svg>
